<svg xmlns="http://www.w3.org/2000/svg" xmlns:xlink="http://www.w3.org/1999/xlink" width="95" zoomAndPan="magnify" viewBox="0 0 71.25 58.499999" height="78" preserveAspectRatio="xMidYMid meet" version="1.0"><defs><g/><clipPath id="id1"><path d="M 21.640625 10.152344 L 49.101562 10.152344 L 49.101562 28 L 21.640625 28 Z M 21.640625 10.152344 " clip-rule="nonzero"/></clipPath><clipPath id="id2"><path d="M 21.640625 17 L 49.101562 17 L 49.101562 35.386719 L 21.640625 35.386719 Z M 21.640625 17 " clip-rule="nonzero"/></clipPath></defs><g clip-path="url(#id1)"><path fill="#ffffff" d="M 34.121094 10.15625 L 43.214844 10.15625 L 43.214844 13.992188 L 49.101562 13.992188 L 49.101562 17.832031 L 39.371094 27.589844 L 33.480469 27.589844 L 43.214844 17.832031 L 43.214844 13.992188 L 25.527344 13.992188 L 21.703125 10.15625 Z M 34.121094 10.15625 " fill-opacity="1" fill-rule="evenodd"/></g><g clip-path="url(#id2)"><path fill="#ffffff" d="M 36.625 35.378906 L 27.53125 35.378906 L 27.53125 31.542969 L 21.640625 31.542969 L 21.640625 27.707031 L 31.375 17.949219 L 37.261719 17.949219 L 27.53125 27.707031 L 27.53125 31.542969 L 45.21875 31.542969 L 49.042969 35.378906 Z M 36.625 35.378906 " fill-opacity="1" fill-rule="evenodd"/></g><g fill="#ffffff" fill-opacity="1"><g transform="translate(13.031897, 46.782038)"><g><path d="M 3.625 -0.859375 L 3.625 0 L 0.1875 0 L 0.1875 -0.671875 L 2.125 -2.96875 L 0.234375 -2.96875 L 0.234375 -3.828125 L 3.53125 -3.828125 L 3.53125 -3.15625 L 1.609375 -0.859375 Z M 3.625 -0.859375 "/></g></g></g><g fill="#ffffff" fill-opacity="1"><g transform="translate(17.464725, 46.782038)"><g><path d="M 3.453125 -0.84375 L 3.453125 0 L 0.390625 0 L 0.390625 -3.828125 L 3.390625 -3.828125 L 3.390625 -2.984375 L 1.453125 -2.984375 L 1.453125 -2.34375 L 3.15625 -2.34375 L 3.15625 -1.53125 L 1.453125 -1.53125 L 1.453125 -0.84375 Z M 3.453125 -0.84375 "/></g></g></g><g fill="#ffffff" fill-opacity="1"><g transform="translate(21.859247, 46.782038)"><g><path d="M 4.03125 -3.828125 L 4.03125 0 L 3.140625 0 L 1.4375 -2.046875 L 1.4375 0 L 0.390625 0 L 0.390625 -3.828125 L 1.28125 -3.828125 L 2.96875 -1.78125 L 2.96875 -3.828125 Z M 4.03125 -3.828125 "/></g></g></g><g fill="#ffffff" fill-opacity="1"><g transform="translate(26.987079, 46.782038)"><g><path d="M 2.953125 -0.75 L 1.328125 -0.75 L 1.03125 0 L -0.078125 0 L 1.609375 -3.828125 L 2.6875 -3.828125 L 4.375 0 L 3.25 0 Z M 2.625 -1.546875 L 2.140625 -2.765625 L 1.640625 -1.546875 Z M 2.625 -1.546875 "/></g></g></g><g fill="#ffffff" fill-opacity="1"><g transform="translate(32.005462, 46.782038)"><g><path d="M 4.03125 -3.828125 L 4.03125 0 L 3.140625 0 L 1.4375 -2.046875 L 1.4375 0 L 0.390625 0 L 0.390625 -3.828125 L 1.28125 -3.828125 L 2.96875 -1.78125 L 2.96875 -3.828125 Z M 4.03125 -3.828125 "/></g></g></g><g fill="#ffffff" fill-opacity="1"><g transform="translate(37.133294, 46.782038)"><g><path d="M 4.265625 -3.828125 L 2.625 0 L 1.5625 0 L -0.078125 -3.828125 L 1.09375 -3.828125 L 2.140625 -1.328125 L 3.1875 -3.828125 Z M 4.265625 -3.828125 "/></g></g></g><g fill="#ffffff" fill-opacity="1"><g transform="translate(42.042228, 46.782038)"><g><path d="M 0.390625 -3.828125 L 1.46875 -3.828125 L 1.46875 0 L 0.390625 0 Z M 0.390625 -3.828125 "/></g></g></g><g fill="#ffffff" fill-opacity="1"><g transform="translate(44.614419, 46.782038)"><g><path d="M 3.328125 -2 C 3.546875 -1.914062 3.71875 -1.789062 3.84375 -1.625 C 3.96875 -1.46875 4.03125 -1.273438 4.03125 -1.046875 C 4.03125 -0.710938 3.894531 -0.453125 3.625 -0.265625 C 3.351562 -0.0859375 2.960938 0 2.453125 0 L 0.390625 0 L 0.390625 -3.828125 L 2.34375 -3.828125 C 2.832031 -3.828125 3.203125 -3.734375 3.453125 -3.546875 C 3.710938 -3.367188 3.84375 -3.128906 3.84375 -2.828125 C 3.84375 -2.640625 3.796875 -2.472656 3.703125 -2.328125 C 3.617188 -2.191406 3.492188 -2.082031 3.328125 -2 Z M 1.453125 -3.046875 L 1.453125 -2.3125 L 2.203125 -2.3125 C 2.566406 -2.3125 2.75 -2.4375 2.75 -2.6875 C 2.75 -2.925781 2.566406 -3.046875 2.203125 -3.046875 Z M 2.359375 -0.78125 C 2.742188 -0.78125 2.9375 -0.910156 2.9375 -1.171875 C 2.9375 -1.429688 2.742188 -1.5625 2.359375 -1.5625 L 1.453125 -1.5625 L 1.453125 -0.78125 Z M 2.359375 -0.78125 "/></g></g></g><g fill="#ffffff" fill-opacity="1"><g transform="translate(49.539772, 46.782038)"><g><path d="M 3.453125 -0.84375 L 3.453125 0 L 0.390625 0 L 0.390625 -3.828125 L 3.390625 -3.828125 L 3.390625 -2.984375 L 1.453125 -2.984375 L 1.453125 -2.34375 L 3.15625 -2.34375 L 3.15625 -1.53125 L 1.453125 -1.53125 L 1.453125 -0.84375 Z M 3.453125 -0.84375 "/></g></g></g><g fill="#ffffff" fill-opacity="1"><g transform="translate(53.934294, 46.782038)"><g><path d="M 1.734375 0.078125 C 1.421875 0.078125 1.117188 0.0390625 0.828125 -0.03125 C 0.535156 -0.113281 0.296875 -0.21875 0.109375 -0.34375 L 0.46875 -1.140625 C 0.644531 -1.023438 0.84375 -0.929688 1.0625 -0.859375 C 1.289062 -0.796875 1.515625 -0.765625 1.734375 -0.765625 C 2.148438 -0.765625 2.359375 -0.867188 2.359375 -1.078125 C 2.359375 -1.179688 2.296875 -1.257812 2.171875 -1.3125 C 2.054688 -1.375 1.867188 -1.429688 1.609375 -1.484375 C 1.316406 -1.546875 1.070312 -1.613281 0.875 -1.6875 C 0.6875 -1.757812 0.523438 -1.875 0.390625 -2.03125 C 0.253906 -2.1875 0.1875 -2.394531 0.1875 -2.65625 C 0.1875 -2.894531 0.25 -3.109375 0.375 -3.296875 C 0.5 -3.484375 0.6875 -3.628906 0.9375 -3.734375 C 1.195312 -3.847656 1.507812 -3.90625 1.875 -3.90625 C 2.125 -3.90625 2.367188 -3.875 2.609375 -3.8125 C 2.859375 -3.757812 3.078125 -3.679688 3.265625 -3.578125 L 2.9375 -2.765625 C 2.570312 -2.960938 2.21875 -3.0625 1.875 -3.0625 C 1.65625 -3.0625 1.492188 -3.03125 1.390625 -2.96875 C 1.296875 -2.90625 1.25 -2.820312 1.25 -2.71875 C 1.25 -2.613281 1.304688 -2.535156 1.421875 -2.484375 C 1.546875 -2.429688 1.734375 -2.378906 1.984375 -2.328125 C 2.273438 -2.265625 2.515625 -2.195312 2.703125 -2.125 C 2.898438 -2.0625 3.066406 -1.953125 3.203125 -1.796875 C 3.347656 -1.640625 3.421875 -1.425781 3.421875 -1.15625 C 3.421875 -0.925781 3.359375 -0.71875 3.234375 -0.53125 C 3.109375 -0.34375 2.914062 -0.191406 2.65625 -0.078125 C 2.40625 0.0234375 2.097656 0.078125 1.734375 0.078125 Z M 1.734375 0.078125 "/></g></g></g></svg>